<svg width="174" height="506" viewBox="0 0 174 506" fill="none" xmlns="http://www.w3.org/2000/svg">
<path d="M104.699 11.1718C104.699 11.1718 72.6995 -3.32861 68.1993 5.17182C63.6992 13.6722 107.699 14.1714 107.699 25.1718C107.699 36.1722 65.1996 7.67139 62.6994 19.6718C60.1992 31.6722 110.7 32.671 107.699 44.1714C104.699 55.6718 63.706 26.6714 62.6994 39.6714C61.6927 52.6714 102.699 52.6714 100.699 62.6714C98.6992 72.6714 68.1993 52.671 68.1993 62.6714C68.1993 72.6718 150.199 90.671 147.699 104.671C145.199 118.672 65.199 69.6714 60.199 81.1714C55.199 92.6714 156.199 119.671 153.199 132.672C150.2 145.672 45.1994 81.1714 34.6994 91.6714C24.1994 102.171 160.199 143.171 155.699 157.671C151.199 172.171 29.1987 96.671 21.199 108.671C13.1994 120.672 134.699 163.671 128.699 175.172C122.7 186.672 21.199 121.171 17.199 135.171C13.199 149.171 130.199 183.171 126.699 199.171C123.199 215.172 17.199 144.171 14.1996 158.171C11.2002 172.171 132.699 210.171 128.699 225.172C124.7 240.172 45.1994 181.171 43.699 195.671C42.1987 210.171 142.2 245.171 136.699 263.171C131.199 281.172 47.1992 206.554 41.699 220.172C36.1988 233.79 139.699 281.671 133.199 299.171C126.699 316.671 92.6993 288.171 88.6993 300.671C84.6993 313.171 133.199 329.171 128.199 340.171C123.199 351.171 96.6993 331.171 92.6993 342.171C88.6993 353.171 130.699 377.171 124.699 390.171C118.699 403.171 101.199 380.671 94.699 390.171C88.1993 399.671 128.699 425.172 122.199 436.172C115.7 447.172 96.199 429.671 92.199 440.671C88.199 451.671 124.699 461.172 115.199 475.671C105.699 490.171 94.699 474.171 94.699 474.171M34.6994 183.171C34.6994 183.171 13.699 178.172 10.699 186.171C7.69903 194.171 32.1988 197.172 27.699 206.171C23.1992 215.171 10.1985 202.171 6.19903 213.171C2.19955 224.171 22.199 225.172 19.199 233.671C16.199 242.171 4.69955 232.171 2.69903 241.171C0.698508 250.171 14.6984 253.171 13.199 259.171C11.6996 265.172 2.69922 263.671 2.69922 271.671C2.69922 279.671 23.199 280.172 19.199 290.671C15.199 301.171 2.69903 293.671 2.69903 293.671M36.6992 249.171C36.6992 249.171 87.6992 270.671 84.1993 284.672C80.6995 298.672 40.1991 266.171 36.6992 281.671C33.1994 297.171 84.1991 314.671 79.6992 327.172C75.1993 339.672 47.6992 316.671 41.6992 328.671C35.6992 340.672 83.1992 364.171 77.1992 374.671C71.1992 385.172 52.6992 369.171 47.6992 378.671C42.6992 388.172 82.6991 404.671 77.1992 416.171C71.6993 427.672 50.1991 413.171 47.6992 424.671C45.1994 436.172 82.1992 448.671 78.1993 459.171C74.1995 469.672 55.2647 459.373 53.1992 470.671C51.1338 481.97 84.1992 485.171 77.1992 497.671C70.1992 510.171 58.1992 497.671 58.1992 497.671M136.699 175.172C136.699 175.172 162.199 181.671 162.199 192.671C162.199 203.672 141.199 191.671 141.199 200.671C141.199 209.672 165.699 207.671 165.699 218.171C165.699 228.672 149.699 219.671 149.699 226.671C149.699 233.672 169.199 241.671 167.199 249.171C165.199 256.671 155.199 258.171 155.199 265.171C155.199 272.171 175.199 275.671 169.699 287.671C164.2 299.671 149.699 285.171 149.699 285.171" stroke="white" stroke-width="5"/>
</svg>
